<svg width="87" height="87" viewBox="0 0 87 87" fill="none" xmlns="http://www.w3.org/2000/svg">
<rect width="87" height="87" rx="12" fill="black"/>
<path d="M18.1513 41.3135C16.4413 41.3135 15.0827 40.9905 14.0757 40.3445C13.0876 39.6984 12.3941 38.8054 11.9951 37.6654C11.5961 36.5063 11.3966 35.1668 11.3966 33.6467V25.3529C11.3966 23.7568 11.5961 22.3888 11.9951 21.2487C12.3941 20.0897 13.0876 19.1966 14.0757 18.5696C15.0827 17.9426 16.4413 17.6291 18.1513 17.6291C19.8044 17.6291 21.0964 17.9046 22.0275 18.4556C22.9775 19.0066 23.6425 19.7857 24.0225 20.7927C24.4216 21.7997 24.6211 22.9683 24.6211 24.2983V26.2364H20.0609V24.0703C20.0609 23.5383 20.0324 23.0443 19.9754 22.5883C19.9184 22.1133 19.7569 21.7332 19.4909 21.4482C19.2439 21.1442 18.8068 20.9922 18.1798 20.9922C17.5528 20.9922 17.0968 21.1442 16.8118 21.4482C16.5268 21.7522 16.3462 22.1513 16.2702 22.6453C16.1942 23.1203 16.1562 23.6523 16.1562 24.2413V34.7298C16.1562 35.3758 16.2037 35.9458 16.2987 36.4398C16.4128 36.9148 16.6123 37.2854 16.8973 37.5514C17.2013 37.7984 17.6288 37.9219 18.1798 37.9219C18.7878 37.9219 19.2154 37.7794 19.4624 37.4944C19.7284 37.1904 19.8899 36.7913 19.9469 36.2973C20.0229 35.8033 20.0609 35.2808 20.0609 34.7298V32.4782H24.6211V34.3877C24.6211 35.7368 24.4311 36.9338 24.0511 37.9789C23.671 39.0049 23.0155 39.822 22.0845 40.43C21.1534 41.019 19.8424 41.3135 18.1513 41.3135ZM33.9334 41.3135C32.2423 41.3135 30.9027 41.0095 29.9147 40.4015C28.9267 39.7935 28.2141 38.9289 27.7771 37.8079C27.3591 36.6678 27.1501 35.3093 27.1501 33.7322V25.1249C27.1501 23.5478 27.3591 22.1988 27.7771 21.0777C28.2141 19.9567 28.9267 19.1016 29.9147 18.5126C30.9027 17.9236 32.2423 17.6291 33.9334 17.6291C35.6434 17.6291 36.9925 17.9331 37.9805 18.5411C38.9876 19.1301 39.7001 19.9852 40.1181 21.1062C40.5551 22.2083 40.7736 23.5478 40.7736 25.1249V33.7322C40.7736 35.3093 40.5551 36.6678 40.1181 37.8079C39.7001 38.9289 38.9876 39.7935 37.9805 40.4015C36.9925 41.0095 35.6434 41.3135 33.9334 41.3135ZM33.9334 37.9219C34.5414 37.9219 34.9879 37.7889 35.2729 37.5229C35.5579 37.2379 35.7479 36.8673 35.8429 36.4113C35.9379 35.9363 35.9854 35.4328 35.9854 34.9008V23.9848C35.9854 23.4528 35.9379 22.9588 35.8429 22.5028C35.7479 22.0468 35.5579 21.6857 35.2729 21.4197C34.9879 21.1347 34.5414 20.9922 33.9334 20.9922C33.3633 20.9922 32.9358 21.1347 32.6508 21.4197C32.3658 21.6857 32.1758 22.0468 32.0808 22.5028C31.9858 22.9588 31.9383 23.4528 31.9383 23.9848V34.9008C31.9383 35.4328 31.9763 35.9363 32.0523 36.4113C32.1473 36.8673 32.3373 37.2379 32.6223 37.5229C32.9073 37.7889 33.3443 37.9219 33.9334 37.9219ZM43.9137 41V17.9141H48.6163V37.8079H54.0316V41H43.9137ZM62.351 41.3135C60.6599 41.3135 59.3204 41.0095 58.3323 40.4015C57.3443 39.7935 56.6318 38.9289 56.1947 37.8079C55.7767 36.6678 55.5677 35.3093 55.5677 33.7322V25.1249C55.5677 23.5478 55.7767 22.1988 56.1947 21.0777C56.6318 19.9567 57.3443 19.1016 58.3323 18.5126C59.3204 17.9236 60.6599 17.6291 62.351 17.6291C64.061 17.6291 65.4101 17.9331 66.3981 18.5411C67.4052 19.1301 68.1177 19.9852 68.5357 21.1062C68.9727 22.2083 69.1912 23.5478 69.1912 25.1249V33.7322C69.1912 35.3093 68.9727 36.6678 68.5357 37.8079C68.1177 38.9289 67.4052 39.7935 66.3981 40.4015C65.4101 41.0095 64.061 41.3135 62.351 41.3135ZM62.351 37.9219C62.959 37.9219 63.4055 37.7889 63.6905 37.5229C63.9755 37.2379 64.1655 36.8673 64.2606 36.4113C64.3556 35.9363 64.4031 35.4328 64.4031 34.9008V23.9848C64.4031 23.4528 64.3556 22.9588 64.2606 22.5028C64.1655 22.0468 63.9755 21.6857 63.6905 21.4197C63.4055 21.1347 62.959 20.9922 62.351 20.9922C61.781 20.9922 61.3534 21.1347 61.0684 21.4197C60.7834 21.6857 60.5934 22.0468 60.4984 22.5028C60.4034 22.9588 60.3559 23.4528 60.3559 23.9848V34.9008C60.3559 35.4328 60.3939 35.9363 60.4699 36.4113C60.5649 36.8673 60.7549 37.2379 61.0399 37.5229C61.3249 37.7889 61.762 37.9219 62.351 37.9219ZM23.2815 72.5602C22.8445 72.3512 22.341 72.0282 21.771 71.5911C21.2009 71.1541 20.6404 70.6411 20.0894 70.0521C19.5384 69.4821 19.0729 68.893 18.6928 68.285C18.6168 68.304 18.5313 68.3135 18.4363 68.3135C18.3603 68.3135 18.2748 68.3135 18.1798 68.3135C16.4888 68.3135 15.1492 68.0095 14.1612 67.4015C13.1731 66.7935 12.4606 65.9289 12.0236 64.8079C11.6056 63.6678 11.3966 62.3093 11.3966 60.7322V52.1249C11.3966 50.5478 11.6056 49.1988 12.0236 48.0777C12.4606 46.9567 13.1731 46.1016 14.1612 45.5126C15.1492 44.9236 16.4888 44.6291 18.1798 44.6291C19.8899 44.6291 21.2389 44.9331 22.227 45.5411C23.234 46.1301 23.9465 46.9852 24.3646 48.1062C24.8016 49.2083 25.0201 50.5478 25.0201 52.1249V60.7322C25.0201 61.8343 24.9156 62.8318 24.7066 63.7248C24.5166 64.5989 24.1936 65.3589 23.7375 66.0049C23.2815 66.6509 22.6735 67.164 21.9135 67.544C22.1605 67.81 22.417 68.076 22.683 68.342C22.949 68.608 23.215 68.855 23.481 69.083C23.747 69.3111 24.0035 69.5011 24.2506 69.6531L23.2815 72.5602ZM18.1798 64.9219C18.7878 64.9219 19.2344 64.7889 19.5194 64.5229C19.8044 64.2379 19.9944 63.8673 20.0894 63.4113C20.1844 62.9363 20.2319 62.4328 20.2319 61.9008V50.9848C20.2319 50.4528 20.1844 49.9588 20.0894 49.5028C19.9944 49.0468 19.8044 48.6857 19.5194 48.4197C19.2344 48.1347 18.7878 47.9922 18.1798 47.9922C17.5908 47.9922 17.1538 48.1347 16.8688 48.4197C16.5838 48.6857 16.3938 49.0468 16.2987 49.5028C16.2227 49.9588 16.1847 50.4528 16.1847 50.9848V61.9008C16.1847 62.4328 16.2227 62.9363 16.2987 63.4113C16.3938 63.8673 16.5838 64.2379 16.8688 64.5229C17.1538 64.7889 17.5908 64.9219 18.1798 64.9219ZM34.6584 68.3135C32.9103 68.3135 31.5517 68.019 30.5827 67.43C29.6137 66.822 28.9296 65.9574 28.5306 64.8364C28.1506 63.6963 27.9606 62.3188 27.9606 60.7037V44.9141H32.6063V61.3592C32.6063 61.9293 32.6443 62.4898 32.7203 63.0408C32.8153 63.5918 33.0053 64.0383 33.2903 64.3804C33.5943 64.7224 34.0503 64.8934 34.6584 64.8934C35.2854 64.8934 35.7414 64.7224 36.0264 64.3804C36.3304 64.0383 36.5204 63.5918 36.5964 63.0408C36.6724 62.4898 36.7104 61.9293 36.7104 61.3592V44.9141H41.3561V60.7037C41.3561 62.3188 41.1566 63.6963 40.7576 64.8364C40.3776 65.9574 39.7031 66.822 38.734 67.43C37.765 68.019 36.4064 68.3135 34.6584 68.3135ZM44.6943 68V44.9141H49.3685V68H44.6943ZM51.7637 68L56.2384 44.9141H61.4541L65.9003 68H61.5396L60.7131 62.9268H57.0649L56.1814 68H51.7637ZM57.4924 60.0482H60.257L58.8605 50.7283L57.4924 60.0482ZM68.2398 68V44.9141H72.9425V64.8079H78.3577V68H68.2398Z" fill="white"/>
</svg>
